<svg xmlns="http://www.w3.org/2000/svg" viewBox="0 0 64 64"><rect width="64" height="64" rx="14" fill="#f3f5f6"/><path transform="translate(12 12) scale(0.4)" d="M59.4 89.7L46.2 91.0L30.7 76.1L19.8 73.7L15.9 68.3L13.3 69.2L13.0 71.8L29.4 77.1L33.3 84.2L31.3 86.2L27.7 82.5L22.8 82.8L16.8 76.5L9.9 2.2L7.3 0.0L5.3 3.0L7.9 8.8L16.8 80.1L31.4 93.4L52.4 100.0L81.0 94.4L90.8 99.6L94.7 99.1L94.7 91.1L91.8 88.3L75.7 87.0L60.2 89.6Z" fill="none" stroke="#fe6a00" stroke-width="15" stroke-linejoin="round" stroke-linecap="round"/></svg>
